<?xml version="1.0" encoding="UTF-8" standalone="no"?>

<svg
   id="svg"
   version="1.1"
   viewBox="0 0 310 318"
   sodipodi:docname="favicon.svg"
   inkscape:version="1.4.3 (0d15f75042, 2025-12-25)"
   xmlns:inkscape="http://www.inkscape.org/namespaces/inkscape"
   xmlns:sodipodi="http://sodipodi.sourceforge.net/DTD/sodipodi-0.dtd"
   xmlns="http://www.w3.org/2000/svg"
   xmlns:svg="http://www.w3.org/2000/svg">
  <defs
     id="defs3" />
  <sodipodi:namedview
     id="namedview3"
     pagecolor="#ffffff"
     bordercolor="#000000"
     borderopacity="0.25"
     inkscape:showpageshadow="2"
     inkscape:pageopacity="0.0"
     inkscape:pagecheckerboard="0"
     inkscape:deskcolor="#d1d1d1"
     inkscape:zoom="2.0347372"
     inkscape:cx="108.85927"
     inkscape:cy="183.31605"
     inkscape:window-width="1904"
     inkscape:window-height="1064"
     inkscape:window-x="8"
     inkscape:window-y="8"
     inkscape:window-maximized="0"
     inkscape:current-layer="svg" />
  <circle
     style="display:block;background:rgb(255, 255, 255);fill:#ffffff"
     id="path4"
     cx="155.05688"
     cy="159.97151"
     r="154.56541" />
  <path
     d="m 69.992155,103.39852 c 1.796333,1.40533 -1.369474,4.78918 -2.913071,7.28268 -2.862362,4.83108 -4.717716,10.16095 -6.190277,15.43017 -1.164273,5.43583 -1.840248,9.07431 -2.457903,15.43018 -0.497535,4.68703 -0.755762,7.05704 -3.699925,10.71089 0,0 -3.110337,4.56695 -2.581385,-8.79919 l 0.0094,-1.98407 c 0.221243,-8.87552 2.965693,-16.75634 6.886362,-24.65744 2.765563,-7.18639 8.393237,-14.55773 10.946775,-13.41322 z"
     style="fill:#000000;stroke-width:0.728268"
     id="path1"
     sodipodi:nodetypes="ccccccccc" />
  <path
     d="m 119.51437,59.702455 c 3.6756,1.220521 -9.55483,6.091161 -13.8698,8.505585 -9.210977,4.252027 -16.254752,10.906371 -22.344459,18.935318 -2.630671,3.25357 -7.697387,5.229169 -6.545876,1.928772 4.663491,-14.637626 30.422305,-32.021155 42.760135,-29.369675 z"
     style="fill:#000000;stroke-width:0.728268"
     id="path2"
     sodipodi:nodetypes="ccccc" />
  <path
     d="m 185.92489,56.758094 c 1.96675,0.729907 3.92793,1.315856 5.94971,1.871874 3.03705,0.878815 5.21212,2.081892 7.70371,4.076588 l 2.20756,1.746707 2.20756,1.803599 2.20756,1.758089 c 3.32815,2.675037 6.43871,5.403288 9.44473,8.43766 7.42378,6.88063 7.42378,6.88063 15.2481,13.290887 3.43292,2.824907 6.03,6.554133 8.78473,10.013682 2.68288,3.36131 5.0847,5.65582 8.73922,8.01095 2.24685,2.37617 2.47263,4.25794 2.731,7.46474 0.72111,5.43886 2.94661,8.8579 7.63544,11.74332 1.83792,1.69155 1.50581,2.68267 1.19481,5.09788 l -0.23327,2.06533 c -0.40397,2.03118 -0.40397,2.03118 -1.21758,3.78926 -0.87057,2.55009 -0.38033,4.33951 0.0854,6.98113 0.0657,1.01675 0.11835,2.03442 0.1593,3.05247 0.3288,8.08734 0.3288,8.08734 6.32683,12.96374 5.01536,2.4141 3.26286,6.47109 0.32431,9.6723 -1.11244,1.4211 -1.68758,2.76784 -2.3498,4.44357 -1.05018,2.55901 -2.25141,4.30938 -4.14203,6.32683 -3.86924,4.22475 -4.64487,8.03255 -5.32545,13.65502 -0.53529,4.29141 -1.71654,7.46687 -3.65841,11.29383 -1.13655,2.7648 -1.27614,5.38432 -1.35697,8.34948 -0.33371,3.10186 -1.98425,3.19593 -4.67969,3.2516 -4.61923,0.42399 -7.58123,2.79575 -9.58127,6.94699 -1.43688,2.78565 -3.22747,4.88217 -5.3027,7.20872 -2.78313,3.16009 -5.44851,6.35016 -8.01095,9.69506 -4.51793,5.53366 -9.82612,7.8725 -16.44008,10.16446 -6.03401,2.24697 -10.14999,4.77478 -13.87975,10.03929 -6.96826,9.0306 -14.76584,7.47143 -24.07267,2.55462 -4.44369,-2.06683 -6.85953,-1.56861 -9.70644,2.34127 -2.87841,3.25061 -11.81864,5.66624 -15.11156,2.25307 -1.75403,-1.69867 -3.47914,-1.73686 -5.86028,-2.09092 l -2.22248,-0.15083 c -7.73173,0.73165 -15.09341,3.5907 -20.3083,-4.26429 -0.79849,-1.8634 -6.0337,-8.02677 -11.37919,-6.28131 -3.822644,1.26426 -7.854356,1.45449 -11.763231,0.96721 -2.848074,-0.50579 -2.799666,-2.49261 -2.711094,-4.9727 0.155966,-7.05743 -3.325081,-14.71073 -10.013682,-17.47843 -4.933781,-2.19279 -5.885642,-7.54545 -7.550083,-12.30943 -2.175977,-5.60861 -4.372622,-7.00344 -10.204285,-7.44199 -2.720801,-0.51647 -2.241892,-2.55509 -2.150669,-4.88167 l 0.0469,-1.90743 c 0.03845,-1.31838 0.0857,-2.63654 0.142246,-3.95427 0.0917,-4.5882 -0.718808,-6.79145 -3.133547,-10.65233 -0.529465,-1.95841 -0.930588,-3.74608 -1.228952,-5.73511 l -0.262249,-1.65869 C 52.466601,181.16393 52.15925,175.9994 51.922024,170.8088 l -0.117171,-2.41914 -0.07912,-2.26624 -0.07343,-2.02389 c 0.172817,-2.22077 0.549135,-3.89613 3.046242,-3.89613 0.160612,1.59092 0.320889,3.18187 0.480773,4.77286 0.135137,1.34421 0.270741,2.68838 0.406803,4.0325 0.345614,3.4354 0.664537,6.86925 0.933093,10.31167 0.548561,5.8273 2.340449,10.80674 4.582079,16.17338 2.035217,4.90721 3.064733,8.93412 3.064733,14.2318 1.797336,1.79733 3.37097,2.11149 5.774938,2.78789 3.614335,2.04585 4.692491,5.73469 5.601224,9.52918 1.563117,6.47122 3.513586,8.98453 9.743604,11.71576 5.592317,3.44498 6.011148,10.28634 6.66031,16.86994 0,0 -0.01753,2.5249 9.088478,-0.21081 4.49989,-0.77147 8.06964,1.00405 9.98809,2.57952 3.38883,3.05171 5.26939,8.03935 9.21998,9.89206 3.43033,1.71517 7.67154,0.62543 10.37782,-1.9117 2.35372,-2.03276 4.77471,-2.74011 6.37234,0.45517 l 2.86755,0.22758 c 2.8716,0.26289 2.8716,0.26289 3.64134,2.36687 2.0677,4.74355 8.30829,1.44269 10.96954,-1.13792 6.23687,-4.47095 6.34981,-9.3246 15.33914,-4.0965 6.76815,4.23336 10.88307,6.52161 15.94224,-0.57465 5.74227,-7.25456 13.4783,-10.92201 22.06423,-13.62657 1.14237,-0.36399 2.2841,-0.72996 3.42514,-1.09809 l 1.50561,-0.47545 c 3.70115,-1.33566 4.75363,-2.43028 6.44844,-6.10457 0.87264,-1.80891 1.8643,-3.49067 2.91307,-5.20313 1.58817,-2.60029 3.07327,-5.23096 4.50615,-7.91991 3.33152,-6.15116 6.85402,-11.21551 13.06331,-14.70191 5.98882,-3.47939 9.39822,-9.06157 9.64955,-16.0674 0.38288,-5.99283 3.21494,-12.89652 6.86449,-17.66049 1.16006,-1.58781 1.36203,-2.69867 1.5561,-4.64271 l 0.19629,-1.68697 c 0.0663,-1.76765 0.0663,-1.76765 -1.51627,-3.72952 -0.25284,-1.42329 -0.25284,-1.42329 -0.35845,-3.04109 l -0.13922,-1.8116 -0.13957,-1.92931 c -0.46548,-5.46032 -1.33026,-10.29944 -3.0041,-15.52405 -0.79588,-2.683 -1.29069,-5.34375 -1.77516,-8.09913 -0.76675,-4.03383 -1.87689,-7.24133 -3.86607,-10.81592 -0.99644,-1.90596 -1.68078,-3.80708 -2.36972,-5.84322 -1.99535,-5.64422 -4.73742,-9.57438 -9.05783,-13.68062 -1.41931,-1.44415 -2.31147,-3.05247 -3.32272,-4.799174 -1.19832,-1.22904 -2.41266,-2.442632 -3.64134,-3.641339 l -1.31998,-1.729636 c -1.87665,-2.251965 -3.98839,-4.021226 -6.24717,-5.880187 -1.17206,-1.129391 -1.17206,-1.129391 -1.17206,-2.585926 -0.96794,-0.491647 -1.93972,-0.975705 -2.91307,-1.456536 -1.10257,-0.942153 -2.17727,-1.917325 -3.23169,-2.913071 -8.80126,-8.040994 -18.74907,-16.176204 -30.2686,-19.663216 l -1.74421,-0.566643 C 172.85805,58.4043 164.64224,56.794318 155.19949,56.789381 l -2.62645,-0.01529 c -6.16478,-0.03416 -19.23592,2.103134 -21.0481,0.677645 -3.38436,-2.649927 18.36238,-13.317903 54.39995,-0.693638 z"
     style="fill:#000000;stroke-width:0.728268"
     id="path3"
     sodipodi:nodetypes="ccccccccccccccccccccccccccccccccccccccccccccccccccccccccccccccccccccccccccccccccccccccccccccccccccccccccc" />
</svg>
