<svg xmlns="http://www.w3.org/2000/svg" viewBox="0 0 2048 2048"><path d="M0 0c6 3 7 4 10 10l2 3 1 5H0V0Z" transform="translate(0 2030)"/><path d="m0 0 3 1a407 407 0 0 1 50 24l25 12c6 4 12 7 19 9v1a661 661 0 0 1-19 1c-13 0-21-2-31-8l-7-4-3-1-2-1-5-2-3-1-9-4C-3 17-23 8-46 4l-3-1c-10-1-19-1-28 1h-3c-20 5-37 17-50 32l-3 6c-1 3-1 3-4 5h-21l14-22 2-3c14-18 34-30 55-36l2-1c29-6 58 3 85 15Z" transform="translate(1028 2001)"/><path d="M0 0c5 1 7 2 10 6l2 3 2 3 1 2a443 443 0 0 1 34 52l17 28 2 3 5 8 1 3 2 3 1 2 2 5c-6 1-12 2-18 0-4-4-7-9-9-15l-6-10a4337 4337 0 0 1-17-29L15 41l-2-3-2-3-2-3-4-5c-5-5-5-8-5-15V0Z" transform="translate(0 1930)"/><path d="M0 0c8 3 13 8 19 14a627 627 0 0 0 21 24l6 6 11 12 8 10a257 257 0 0 1 20 22 308 308 0 0 1 25 32l13 18 20 26 1 2a226 226 0 0 0 31 32v1a350 350 0 0 1-16 1c-7 0-12 1-17-3l-7-9a959 959 0 0 0-6-8l-1-2a523 523 0 0 1-33-46 736 736 0 0 0-52-65l-1-1a414 414 0 0 1-21-24L9 28l-6-5c-3-3-3-5-3-9V0Z" transform="translate(0 1849)"/><path d="M0 0h3c24 0 47 1 71 6l4 1c30 6 59 15 86 28l2 1a449 449 0 0 1 16 8 314 314 0 0 1 106 91l5 7c15 19 27 40 39 62l2 3 1 2 1 2 1 4h-35l-2-9a200 200 0 0 0-52-86 216 216 0 0 0-45-40A290 290 0 0 0 45 23c-19-3-42-1-59 10-4 3-6 7-7 13-1 16 9 28 19 39a443 443 0 0 0 47 38l6 5c11 8 23 14 34 21l2 1a3495 3495 0 0 0 103 57l2 1 13 6v1a830 830 0 0 1-22 1c-12 0-21-1-32-8l-8-4a443 443 0 0 1-20-11 1311 1311 0 0 1-106-64c-11-7-21-16-31-24l-5-4c-42-35-42-35-46-59-1-9 2-15 8-22C-42 6-20 0 0 0Z" transform="translate(1050 1833)"/><path d="M0 0h2l33 10 3 1a666 666 0 0 1 138 67l2 1a204 204 0 0 1 39 32c10 8 17 17 24 26l2 3a355 355 0 0 1 43 67l13 29a290 290 0 0 1-13 1c-6 0-6 0-9-3l-3-6-1-2-3-7c-4-11-10-21-16-31l-2-3a267 267 0 0 0-72-82l-2-2a366 366 0 0 0-95-52L49 37h-2c-34-12-34-12-69-8-5 3-7 7-9 12-5 16-1 34 3 50 8 42 10 83-11 122l-2 3-5 9-2 3c-3 4-5 7-11 9a85 85 0 0 1-16-1h-11l2-2c8-8 14-16 20-25l2-3c9-14 12-29 15-46v-3c1-7 2-14 0-21v-6c-1-16-6-33-10-49-9-37-9-37-6-49l1-4c2-8 4-13 10-19l1-2C-37-6-17-4 0 0Z" transform="translate(1688 1812)"/><path d="M0 0a502 502 0 0 1 51 28c17 9 34 16 51 22l3 1c20 7 42 12 63 13 7 0 13 0 20 2l7-1 19-1 45-5 11-1 2-1a33073 33073 0 0 1 8-1c47-7 47-7 62-6h4c17 0 38 4 51 15 7 8 10 16 10 26-2 20-12 40-20 58l-11 28-1 2a4243 4243 0 0 0-23 56h-23l5-12c9-19 15-39 21-59l1-3c11-32 11-32 8-65-7-10-16-13-27-16h-2c-9-3-18-2-27-2a169463 169463 0 0 1-41 3l-3 1h-6a797 797 0 0 0-29 3l-19 2h-24c-18 0-34-2-52-6h-2l-12-3-4-1c-29-8-56-19-83-33L0 29l-3-1c-11-5-22-8-34-7-5 2-8 6-10 11-10 27 11 68 22 93l3 6 1 2 8 17 1 2 25 43 2 3a221 221 0 0 0 31 36v1a363 363 0 0 1-18 1c-9 0-9 0-14-3l-6-8a1553 1553 0 0 0-6-8l-2-2a328 328 0 0 1-19-31l-14-28-9-17A370 370 0 0 1-79 32c-3-13 0-28 7-39 20-23 52-4 72 7Z" transform="translate(452 1813)"/><path d="M0 0c6 4 9 7 12 14l1 1 13 32 1 2 12 36 1 4c3 12 4 28 0 40-3 5-7 9-13 11-9 1-18 2-27-1v-28l10-5c4-6 4-14 4-20l-1-5v-2C11 66 7 53 2 41c-2-5-2-9-2-14v-3A804 804 0 0 1 0 0Z" transform="translate(0 1632)"/><path d="M0 0c8 3 13 9 19 16l3 3 29 36 6 8 12 18 7 11 10 15 2 3a534 534 0 0 1 33 62l25 59 1 2a4150 4150 0 0 1 33 86c13 34 26 68 41 101 9 20 17 41 22 62l1 2c2 11 3 21 1 32h-25l1-6v-17l-1-4c-3-23-11-43-20-65a878 878 0 0 1-15-39l-1-2-3-8a812 812 0 0 1-17-46l-1-3a2729 2729 0 0 0-35-93l-2-3-4-12-15-35-4-8-18-38-1-1a342 342 0 0 0-17-29 426 426 0 0 0-30-43L6 26l-2-2-2-2c-3-4-2-8-2-13V0Z" transform="translate(0 1532)"/><path d="M0 0c11 8 19 16 23 29 1 7 0 12-3 18-6 6-12 8-21 9-10 0-19-3-28-7l-3-2c-12-6-24-17-30-29-2-7-2-13 0-19 4-6 9-10 16-12 15-3 34 5 46 13Z" transform="translate(1832 1527)"/><path d="M0 0h3a261 261 0 0 1 163 99c18 25 29 55 27 86-2 10-9 20-17 26-9 6-21 9-32 9l-3 1c-34 1-34 1-50-3l-3-1a263 263 0 0 1-95-40l-2-1a298 298 0 0 1-52-43c-21-21-40-49-42-80 0-14 8-29 18-39C-60-5-29-5 0 0Zm-73 27c-9 9-13 20-12 33 0 7 2 13 5 20l1 3a111 111 0 0 0 20 31 197 197 0 0 0 28 29 1001 1001 0 0 1 27 20 177 177 0 0 0 31 17c24 13 52 22 79 24l11 1c13 2 30-1 42-8l2-1c7-4 11-11 13-18v-9c1-18-6-36-15-51l-1-2a193 193 0 0 0-55-61C62 26-29-12-73 27Z" transform="translate(1771 1444)"/><path d="m0 0 17 10 2 2a382 382 0 0 1 79 85 641 641 0 0 1 78 140l1 3a773 773 0 0 1 21 55l10 28a642 642 0 0 1 14 36l5 12 17 41a276296277 276296277 0 0 1 38 81 566 566 0 0 1 38 88l6 14 1 2v2l3 10h-18l-2-6a752 752 0 0 0-52-122l-11-22-9-20-4-10a814 814 0 0 1-25-57 1224 1224 0 0 1-34-90 558 558 0 0 0-57-121l-1-2a608 608 0 0 0-37-54L63 83l-5-6-11-11-2-3a3297 3297 0 0 0-11-10C18 37 18 37 0 25V0Z" transform="translate(0 1439)"/><path d="m0 0 5 2a166 166 0 0 1 38 14c4 2 9 4 12 7v2h2l10 4 7 2 10 5 7 5 14 9 3 1 11 10 11 7c2 1 3 3 4 6l9 6c4 2 7 5 10 9v2l2 1 6 4 1 2a230377297 230377297 0 0 0 13 14l2 2a622 622 0 0 1 56 77l1 2a36053 36053 0 0 0 5 9l1 1c3 6 4 11 4 17a2368330207 2368330207 0 0 1-1 33l-4-9-13-29-1-2a215 215 0 0 0-17-31 335 335 0 0 0-50-67l-14-16-14-14c-2-3-5-4-8-6l-4-4-10-8-7-5c-8-6-15-11-24-15l-2-2C49 30 19 20-10 12l-4-1-11-3-19-3c-34-7-72-12-103 7l-10 9-2 2a71 71 0 0 0-17 50v3c0 26 13 50 29 69l5 7c7 9 15 17 23 24l2 2 2 2 1 4h2v2h2l8 7 18 15 3 1 11 8 2 1a3465 3465 0 0 0 44 28c12 9 26 14 40 19l3 1a7153 7153 0 0 0 50 18l3 1a628 628 0 0 0 81 24l25 7c32 11 32 11 65 15v27l-13-3-3-1-4-2A121713 121713 0 0 0 3 274a313 313 0 0 1-99-59l-1-2-20-17-8-7c-10-6-18-15-24-24l-7-8-10-13-5-8c-19-25-23-53-21-83a649 649 0 0 0 8-20 81 81 0 0 1 56-46l3-1 8-1h3a2009 2009 0 0 1 13-1c35-2 68 6 101 16Z" transform="translate(1805 1412)"/><path d="M0 0h4c21 1 43 5 64 11 9 3 18 4 28 6l14 4 16 5a764 764 0 0 1 76 28l2 1a271 271 0 0 1 31 18 303 303 0 0 1 50 36 192 192 0 0 1 21 18l12 11 6 6c30 23 30 23 32 35l-2 16a533205558 533205558 0 0 1-12-12l-2-2-9-10-4-3-7-7-5-6-3-2v-2l-2-1-5-4a176 176 0 0 0-15-14 462 462 0 0 0-66-47l-3-1-11-7-53-26-4-2-3-1-3-1c-10-5-21-8-32-11l-4-1a2576 2576 0 0 0-86-18c-32-4-60-4-88 14l-2 1c-8 5-12 11-17 18a1226 1226 0 0 1-6 8l-2 3c-18 27-26 63-20 96a134 134 0 0 0 35 62l17 19 7 8c2 3 5 5 8 6l5 5c3 5 8 7 12 10l5 4 3 1 12 10a373 373 0 0 0 49 35l3 1a456 456 0 0 0 45 24 603 603 0 0 0 51 25l2 1a640 640 0 0 0 63 28l12 5a318 318 0 0 1 76 43l9 5 13 11 12 9 14 13 5 3c6 4 6 4 7 8v8l-1 3v8l-15-13a223 223 0 0 0-32-27 411 411 0 0 0-109-64 1868 1868 0 0 0-27-13l-26-11v-2h-2a197 197 0 0 1-39-17l-30-16-2-1a625 625 0 0 1-42-25l-3-2-6-3-13-10-15-10v-2l-2-1-4-3-8-5-15-13-10-7-10-9-7-6c-8-7-15-13-21-21l-6-7a131 131 0 0 1-26-38c-17-31-13-61-4-94 2-9 6-18 11-26l5-9c5-12 12-20 22-28l3-2c8-7 16-13 26-18l2-1c15-9 34-9 51-8Z" transform="translate(1694 1355)"/><path d="M0 0h3a406 406 0 0 1 57 11 866 866 0 0 1 84 21l3 1a1647 1647 0 0 0 35 11 503 503 0 0 1 133 62l7 4c10 5 10 5 12 9 2 8 1 17 0 25l-15-10a557 557 0 0 0-86-52l-2-1a339 339 0 0 0-53-22 487 487 0 0 0-60-18l-9-3-4-1c-16-5-33-8-49-11l-34-7C-17 9-61 6-97 27l-20 17-3 3a99 99 0 0 0-19 26l-14 26-3 6a213 213 0 0 0-20 70 132 132 0 0 0 4 58c4 13 14 26 24 36a21396 21396 0 0 1 27 25 2625 2625 0 0 1 51 39l2 2 2 1 4 3v2l3 1c4 1 6 3 9 5l22 12a1226 1226 0 0 1 88 51l6 4 3 1 17 10 53 28a1740 1740 0 0 1 95 55 298 298 0 0 0 26 19l3 2 29 28a1695 1695 0 0 0 27 29l10 13c4 4 6 7 6 13v11l-1 8-9-12a781 781 0 0 0-28-35 253 253 0 0 0-44-43c-23-21-52-38-79-53l-3-2-3-1-7-5a107 107 0 0 0-21-11l-3-1-18-9-3-1-13-7c-5-4-11-6-16-9l-4-2-20-9c-8-3-15-7-21-12l-7-3-13-7-10-6c-19-10-38-22-57-34l-7-5a394 394 0 0 1-39-28l-2-2a2467 2467 0 0 0-51-39c-24-19-43-42-49-74v-23c0-15 1-30 5-45l1-2a299 299 0 0 1 23-63l1-3a173 173 0 0 1 27-41l2-2a148 148 0 0 1 36-32C-87 4-76 0-65-3h2c20-5 44 0 63 3Z" transform="translate(1714 1318)"/><path d="M0 0c24 8 47 21 70 34l2 1c18 11 34 22 50 34l2 2 7 5 2 2 21 17 1 1 14 13 2 2a3519 3519 0 0 1 36 39 253 253 0 0 1 22 30c30 43 65 103 57 158-6 27-23 50-46 65a337 337 0 0 1-19 12c-19 11-40 19-61 27l-15 6-3 1a892 892 0 0 0-41 17h-2a105 105 0 0 1-41 8c-10 0-16-3-23-10-11-12-14-26-15-42v-2c0-22 5-43 10-64l5-30 1-3a2858 2858 0 0 0 4-24v-3l1-12 1-12v-15l-1-11a101 101 0 0 0-3-24c-3-11-5-21-9-31l-2-3a312 312 0 0 0-31-60 784 784 0 0 1-15-27c-33-59-33-59-27-85 2-7 5-13 11-17l4-1c8-4 22-1 31 2Zm-7 37c-5 6-4 12-3 19 5 22 18 44 29 63a296 296 0 0 1 47 149v12l-1 9-1 7c0 12-2 23-4 35a11062 11062 0 0 0-2 12v4l-3 15-1 22v7c0 13 1 26 9 36 8 7 17 9 27 9a277 277 0 0 0 151-62c14-12 21-32 23-50 1-20-5-40-12-58l-2-3a358 358 0 0 0-22-45 354 354 0 0 0-52-72l-2-3a354 354 0 0 1-17-18l-2-2a170 170 0 0 0-22-20L98 77l-2-1a302 302 0 0 0-54-31C29 39 5 28-7 37Z" transform="translate(335 1124)"/><path d="M0 0h6c15 0 26 4 36 14 8 8 12 16 12 28a82 82 0 0 1-15 38 1459 1459 0 0 1-30 53l-3 7a640 640 0 0 0-42 94c-13 35-31 75-67 93-11 5-21 8-34 8h-3c-12 1-22-1-33-5l-3-1c-19-8-34-19-49-33l-2-2c-20-18-31-41-37-67l-1-3c-3-14 1-31 9-43l10-13 3-2a141 141 0 0 1 26-20l3-2a627 627 0 0 0 25-16l37-25 7-6 22-17 2-1a424 424 0 0 0 35-28l14-13 11-9 8-6C-37 10-22 0 0 0Zm-76 87a1032 1032 0 0 1-11 7l-3 2-14 10-14 9a876 876 0 0 0-44 30c-42 26-42 26-66 68-1 9 0 16 2 24l1 3 8 18 2 3a97 97 0 0 0 40 37c17 9 36 14 54 8a62 62 0 0 0 27-17c13-12 21-26 28-43l3-7a685 685 0 0 0 28-82c8-21 15-42 19-64v-2c1-7 0-13-4-19-4-4-9-3-15-3-15 1-29 10-41 18Z" transform="translate(1485 1046)"/><path d="M0 0c18 7 31 37 40 53l1 2c57 106 57 106 46 157-4 11-9 19-19 25-14 6-31 5-45 0L0 225v-22l18 7c11 5 22 8 35 3 4-2 7-4 9-9 12-36-7-79-22-112l-4-9c-6-13-14-26-21-38l-2-3c-3-6-3-6-8-11-7-8-6-16-5-26V0Z" transform="translate(0 1004)"/><path d="m0 0 2 1a250 250 0 0 1 34 32l2 2 4 4 1 1c4 4 5 7 4 11v21L28 51A154 154 0 0 0-6 20 141 141 0 0 0-49-2l-13-1h-2c-6 0-11 1-16 4-5 5-7 11-9 18v3c-7 47 25 101 50 138l1 2 18 24 2 3a276 276 0 0 0 24 26c4 6 9 11 15 16l11 10 6 4c4 1 6 3 9 6 2 8 1 16 0 24a159 159 0 0 1-39-32l-10-10-9-8a145 145 0 0 1-17-20 264 264 0 0 1-21-28l-1-2-1-1c-14-19-25-39-35-59l-1-3c-8-14-14-30-18-46l-1-2-2-8-1-4a111 111 0 0 1-4-38c0-14 3-25 13-35C-72-46-25-19 0 0Z" transform="translate(2001 953)"/><path d="M0 0c7 3 10 6 15 12l1 2a640 640 0 0 1 13 16l1 2 18 23 4 7 18 26a2707 2707 0 0 0 22 36 1665 1665 0 0 0 27 53 338 338 0 0 0 15 33 2776 2776 0 0 0 22 54c10 24 18 48 23 73v2a149 149 0 0 1 3 40c1 21-5 40-19 56-6 6-14 10-22 14l-3 2c-9 4-19 6-29 8h-3c-33 5-69-10-96-29l-4-3-6-5v-24c5 3 11 5 16 9a184 184 0 0 0 50 23c18 6 42 5 59-1l3-1 17-10 2-2c10-9 14-24 15-37v-6c3-52-21-105-41-151a1857 1857 0 0 1-21-47l-7-15a103794 103794 0 0 0-23-42l-5-8a338 338 0 0 0-28-42 133 133 0 0 0-16-22L8 30l-1-2-7-6V0Z" transform="translate(0 911)"/><path d="M0 0h8a438 438 0 0 1 154 38c24 9 49 19 71 33l2 2a153 153 0 0 1 28 22c11 9 21 19 30 31l5 7a127 127 0 0 1 13 18c25 38 55 93 46 141-2 9-8 17-16 22l-18 7h-3c-8 2-16 2-24 1l-18 2-13 1c-18 1-33 4-50 9l-2 1c-39 13-70 47-91 80l-5 9c-8 11-14 24-21 36l-4 7-1 2a14855 14855 0 0 1-9 17c-12 24-25 48-42 68l-2 2c-15 19-36 33-60 39l-3 1c-22 6-45 3-66-2h-3c-25-5-48-11-71-19h-3c-33-11-65-26-91-51l-3-2c-15-15-26-32-35-52l-1-2c-10-20-16-40-23-61l-1-2-16-56v-2a739 739 0 0 1-5-20 171 171 0 0 1-3-49c0-30 8-58 29-79 16-16 35-23 57-25l6-1h7l36-3h3c13-3 25-6 37-12l4-2c8-4 15-8 22-15l2-1c23-19 32-49 40-76 7-22 16-43 37-55C-47-1-21-5 0 0Zm18 23c-36 0-36 0-67 14l-3 3c-9 8-15 17-20 27l-2 3-10 25-12 26-1 2c-3 6-7 10-11 15l-2 3-6 7-2 2c-18 23-49 37-76 43l-2 1-27 4-7 1-8 1c-26 1-50 5-69 24l-8 12-1 2c-3 6-5 11-6 17l-1 3a200 200 0 0 0 13 122c16 55 16 55 43 105l2 3c18 26 40 41 67 54l2 1c12 7 25 12 38 16l3 1a513 513 0 0 0 90 20h3l7 1h8l13-2c19-3 34-11 49-23l3-2c6-5 11-11 15-18l5-6a276 276 0 0 0 27-43 556 556 0 0 0 31-59l6-11c6-11 12-20 20-30l2-2a977 977 0 0 1 34-38l3-2c12-11 26-19 41-26l2-1c24-11 54-16 81-17 14-1 33-4 43-15 3-5 5-11 5-18v-3c0-15-3-29-8-43l-1-2a180 180 0 0 0-15-34l-16-29-2-3a190 190 0 0 0-18-23 192 192 0 0 0-36-34c-24-18-51-31-79-42l-3-1C113 38 63 23 18 23Z" transform="translate(1406 885)"/><path d="m0 0 2 1a277 277 0 0 1 42 19l35 22 18 11a483 483 0 0 1 54 35l6 5a225 225 0 0 1 47 46l1 2c5 8 9 16 12 25l1 2c3 12 2 25-3 36-5 7-11 11-19 13-22 3-40-7-57-20l-7-5-2-2a892 892 0 0 1-50-43 428 428 0 0 0-63-49l-34-26-2-1c-36-30-36-30-38-51 0-7 1-12 6-17 13-14 34-9 51-3Zm-10 33c-1 7 2 10 6 15L9 60a3091 3091 0 0 1 18 15 266 266 0 0 1 30 23 424 424 0 0 1 55 47l14 13 8 7c12 10 28 23 45 23 3 0 5-2 8-4 3-6 2-15 0-21l-3-7-2-3c-11-18-28-31-45-43l-2-1-22-14-19-12a679 679 0 0 0-41-26C23 36 23 36-10 33Z" transform="translate(554 883)"/><path d="M0 0a45 45 0 0 1 17 13 186 186 0 0 1 20 23 267 267 0 0 1 16 21 1084 1084 0 0 1 81 130l8 14a460 460 0 0 1 29 55l19 42 8 18v2a6904 6904 0 0 0 31 70l1 3a2135 2135 0 0 1 7 14l7 17a1027 1027 0 0 0 22 54 268 268 0 0 1 16 85c0 11-1 21-3 31l-1 3a192 192 0 0 1-38 71l-1 2c-6 7-10 15-14 24l-1 2c-4 11-6 24-5 36v2c0 12 1 23 3 34l1 3a758 758 0 0 0 19 73v3l7 23 15 54a1771 1771 0 0 1 16 53l7 21 1 3a618 618 0 0 0 43 100 2630 2630 0 0 1 48 102l7 16a276 276 0 0 0 10 22h-17l-16-31a189 189 0 0 0-12-27l-4-9-7-15-9-19-13-28-8-17a395 395 0 0 1-16-34l-12-27-5-13c-6-14-10-28-15-43l-3-8-34-111-9-33-1-3-4-14c-23-74-23-74-17-103l1-4 7-22 1-3c6-13 15-23 23-34 12-15 21-30 28-48l1-3c4-12 4-25 5-38v-2a135 135 0 0 0-4-40c-5-24-14-47-23-69l-4-10-3-7-1-3-8-17-5-12-10-23-2-3a3651 3651 0 0 0-71-153l-22-38a1461 1461 0 0 1-36-58l-1-1-8-13-26-37-6-8A250 250 0 0 0 4 28l-3-3c-2-3-1-4-1-7V0Z" transform="translate(0 809)"/><path d="M0 0a4798 4798 0 0 0 78 34l15 7a230 230 0 0 1 32 17 190 190 0 0 1 34 22 226 226 0 0 1 42 43l2 2c27 37 44 94 41 140l1 7c2 8 1 16 1 23v3c0 28-1 65-21 87-9 9-20 15-33 16-23-1-44-14-63-26l-3-2-36-26-2-2a970 970 0 0 1-51-41l-1-1a673 673 0 0 0-45-37l-2-2a1734 1734 0 0 1-49-38 485 485 0 0 1-42-31 613 613 0 0 1-50-38c-18-14-32-29-45-47l-2-3c-14-20-23-46-19-71a74 74 0 0 1 19-37 79 79 0 0 1 30-20 90 90 0 0 1 27-9C-94-39-44-19 0 0Zm-135-15-3 1a86 86 0 0 0-40 17 61 61 0 0 0-24 40 86 86 0 0 0 14 53c12 21 32 41 52 56l3 2a463 463 0 0 0 45 34l11 8 12 9a162 162 0 0 1 25 19l2 1 11 8 22 18a107906 107906 0 0 0 113 90l20 14 8 4c18 12 39 21 61 17 10-3 16-9 20-18 11-21 13-44 12-68v-3a280 280 0 0 0-5-58 191 191 0 0 0-64-123l-2-2a223 223 0 0 0-40-28L89 60l-2-1-48-23-2-1a407 407 0 0 0-27-12 377 377 0 0 0-115-38c-10-2-20-1-30 0Z" transform="translate(612 820)"/><path d="m0 0 5 1a180 180 0 0 1 63 35 186 186 0 0 1 39 40 183 183 0 0 1 28 56c6 20 8 46-1 64l-2 4c-7 12-22 19-35 23a118 118 0 0 1-56 1c-34-5-67-18-93-40l-2-2a360 360 0 0 1-11-9l-19-24-1-2c-11-16-17-34-21-52v-2c-5-17-4-35 0-52v-3c4-15 13-28 25-36C-57-12-26-8 0 0Zm-73 24-2 2c-5 5-8 12-11 19l-1 2c-3 8-3 16-2 24v2c0 13 1 25 5 37l1 2c4 15 12 28 22 40l1 2c7 9 15 15 24 22l2 2c15 10 32 19 50 24l3 1c14 4 28 5 42 5h3c17 0 33-3 46-15 9-10 10-23 10-36-1-12-3-24-7-35l-1-2a156 156 0 0 0-38-58A182 182 0 0 0 5 20l-2-1a108 108 0 0 0-42-6c-13 0-24 2-34 11Z" transform="translate(1535 524)"/><path d="M0 0c11 5 20 13 29 21l9 7 14 14 11 9 19 18 15 15a1992 1992 0 0 0 49 50l2 2 2 3 2 2 14 22 1 3c6 10 8 21 5 32-2 6-5 8-11 11-9 2-15-1-23-4l-3-2c-7-3-13-7-19-12l-9-6-14-10a523 523 0 0 0-31-23l-2-2c-14-11-27-23-38-36l-2-3C0 88-31 43-29 12c1-7 4-10 9-13 7-3 13-2 20 1Z" transform="translate(983 384)"/><path d="M0 0a208 208 0 0 1 18 16 246 246 0 0 1 26 29 396 396 0 0 1 62 111c4 12 5 24 7 37v3l-2 20-1 3c-2 12-8 23-19 30-17 11-33 10-51 6a137 137 0 0 1-84-72l-4-6A304 304 0 0 1-87 25v-2c0-12 5-24 13-33 23-21 52-7 74 10Zm-57 8c-13 17-12 39-10 60l9 39v2c5 20 12 40 23 58l1 2c17 30 39 54 72 65l17 1h3c11 0 18-2 26-10l7-10 1-3 2-14v-2c2-34-13-68-30-96l-2-2-7-12-2-2c-6-10-13-18-20-27l-5-6C11 30-13 6-41 3c-6-1-11 1-16 5Z" transform="translate(691 378)"/><path d="M0 0h8a188 188 0 0 1 36 3l20 3 3 1c55 9 106 39 139 84l1 2c20 28 41 62 41 97v4c0 15-2 27-12 38l-11 8h-2c-13 7-26 8-41 8h-9a194 194 0 0 1-48-4h-2a3622 3622 0 0 0-19-2l-6-1c-17-3-36-1-53 3l-2 1c-35 8-63 34-82 63l-7 11c-7 12-15 23-24 33l-2 3c-7 6-13 11-21 15l-2 2c-21 10-44 7-65 0v-25l16 1a74 74 0 0 0 54-19l2-1a122 122 0 0 0 16-21l15-20a176 176 0 0 1 40-44c15-12 32-19 50-25l3-1c29-8 64-3 93 2l25 3 3 1h3l7 1c8 1 15 0 23-1l3-1c10-2 19-6 26-15 7-15 3-38-3-53l-3-8-1-2a165 165 0 0 0-10-18 187 187 0 0 0-38-48C132 46 86 32 41 28h-4l-4-1A150 150 0 0 0-88 62l-19 14-6 4c-36 26-36 26-47 26-1-9-3-18 0-27 4-6 12-8 18-11l10-7 3-2a785 785 0 0 0 33-27c9-7 18-13 28-18l3-1c6-3 12-6 18-7l2-1c15-4 30-5 45-5Z" transform="translate(160 329)"/><path d="M0 0c17 13 32 27 46 43l2 3a524 524 0 0 1 17 23 857 857 0 0 1 78 127l10 23a734 734 0 0 0 13 29l1 3 12 30 1 3a2894 2894 0 0 1 26 73c23 64 23 64 23 88v2a1388 1388 0 0 1-2 37l-1 2-1 6-1 4-3 10-6 21v3c-3 11-4 20-4 31v3a3914 3914 0 0 0 0 27v9l2 8v18a220398704 220398704 0 0 0 2 16l-1 4a2004 2004 0 0 1 2 22l1 25c-1 13-1 13 1 27l1 18a1779 1779 0 0 0 2 29v18l2 7v23l2 5v10a1373 1373 0 0 0 0 8l1 5 1 10v19l1 6 1 9a10543 10543 0 0 0-1 11c0 11 0 11 2 21l1 12 2 27a272 272 0 0 1 4 29 326 326 0 0 1 2 49c0 26-1 61-20 81-9 7-18 9-29 8-5 0-8-1-12-4l-3-1c-8-5-15-11-21-18l-2-1c-7-7-14-14-19-22l-3-3-15-22-31-42-3-3a263 263 0 0 0-31-34c-14-14-14-14-17-22h-2l-10-9c-7-8-14-15-23-22l-10-10a177 177 0 0 0-25-24l-12-10-8-7-5-5-2-2v-2l-3-1c-3-1-4-2-6-5l-11-9-6-5-16-12-7-8a497 497 0 0 0-26-18l-20-16-8-6c-6-3-10-7-15-11l-12-9-7-5-10-7-17-12-9-7-17-13-9-8-10-9a518 518 0 0 0-19-17l-3-3-13-15-6-7c-19-24-31-51-37-81l-1-4c-4-22 0-44 12-64l1-3a106 106 0 0 1 53-42c26-13 64-22 94-21l7-1a64 64 0 0 1 17-1 1532 1532 0 0 1 67 0c17 0 36 0 49-11 4-5 6-10 6-16l1-3c0-12-5-24-9-35a23199 23199 0 0 1-35-93l-16-44a1039 1039 0 0 1-30-82 494 494 0 0 1-22-74l-1-3a126 126 0 0 1-3-38c0-20 5-36 19-50l12-9 2-1c8-5 16-7 25-9h2c34-8 73 6 101 26Zm-89-10c-16 2-30 8-41 19a72 72 0 0 0-13 59 526 526 0 0 0 28 103 854 854 0 0 0 26 73l10 25 1 3a2078 2078 0 0 0 43 99c25 47 25 47 19 66-3 9-10 15-18 19-19 8-43 10-62 6h-8a1637 1637 0 0 0-19-2l-19-1a2151 2151 0 0 1-24-1h-2l-5 1h-9c-20 0-40 2-58 7l-3 1c-14 3-26 7-38 13l-2 1c-9 4-17 9-24 15l-3 2a84 84 0 0 0-27 56c-1 5 0 9 1 14v5a154 154 0 0 0 37 82 258 258 0 0 0 46 47l5 4 6 5 10 8 4 1 1 3 4 3c9 5 16 11 24 18l8 5a434 434 0 0 1 13 10c7 4 13 8 18 14l14 9a67 67 0 0 1 13 9 153 153 0 0 1 16 14 349 349 0 0 1 33 27l15 11a270 270 0 0 1 32 28l5 4 1 2a392 392 0 0 0 25 21l2 2 2 3 7 5 22 22a18859 18859 0 0 0 69 71l13 16 7 9a1350 1350 0 0 1 31 38l1 2c7 8 14 15 23 20l2 1c7 5 13 6 22 5 6-2 10-6 14-11a133 133 0 0 0 11-69c0-8 0-15-2-23v-10l-1-16c-1-7-2-13-1-20l-1-9a1784 1784 0 0 0-3-65l-1-1 1-6c0-12 0-12-2-23v-11l-2-17v-14l-1-11c-2-5-2-9-1-14l-1-14c-2-6-2-13-1-19l-2-16-1-14v-9a236 236 0 0 0-1-20l-2-16-1-10-2-19-1-3a1054 1054 0 0 0-10-63l-1-2-1-19-2-10v-9l1-3v-2a185 185 0 0 1 12-50l1-3 7-29v-3c1-9 0-18-1-27l-1-2a441 441 0 0 0-23-86v-2a1637 1637 0 0 1-14-42l-1-2a531 531 0 0 0-27-68l-4-8a48512 48512 0 0 0-30-53 232 232 0 0 1-14-23l-9-15-11-17-9-12-15-20-8-10-6-7-5-5C13 30 3 21-8 13l-4-2C-34-4-62-12-89-10Z" transform="translate(686 291)"/><path d="M0 0a379200525 379200525 0 0 0 75 2h13l33 3 3 1c45 7 86 24 119 56l2 2c12 11 22 22 31 35l2 3a310 310 0 0 1 6 9c24 35 45 72 66 108l1 2a379 379 0 0 1 16 29l14 27 4 7 2 3 6 11 9 18a294 294 0 0 0 24 44l17 31 1 3a268 268 0 0 0 21 31c11 17 24 33 37 49a616 616 0 0 1 28 37c10 14 16 28 21 45l1 4c3 10 4 20 3 30v9c0 10 0 20-3 30l-1 3c-6 25-17 48-31 70a289 289 0 0 0-46 157l-1 20v4c0 7 0 13 2 19l1 19a2197 2197 0 0 0 1 22v3l1 5v4l1 6a344 344 0 0 1 2 26l2 15a221 221 0 0 0 6 33l9 41 12 66 1 3 4 32c7 49 20 104 61 137l2 2c24 21 56 33 86 42l2 1a839 839 0 0 0 18 5l52 11 53 11 4 1a314 314 0 0 1 87 30 125 125 0 0 1 49 46c15 30 16 64 6 95-6 18-16 31-33 40-4 3-9 3-14 4l-3 1c-12 2-23 1-36-1l-2-1c-36-6-70-18-105-29a4759 4759 0 0 0-74-26 2521 2521 0 0 0-67-24 1460 1460 0 0 0-176-55l-39-8-27-5c-37-7-37-7-49-21-6-10-9-19-9-31v-6l1-17 1-17v-18c0-19 0-37-5-55l-1-3a372 372 0 0 0-23-68 372 372 0 0 0-28-58l-7-13a213 213 0 0 0-16-28l-13-18a379 379 0 0 1-23-30l-6-7a294 294 0 0 0-19-21l-10-12-4-4-8-8-6-6-9-8c-6-4-10-9-14-13l-19-16-10-8-7-6-11-9-11-9-11-9a605 605 0 0 0-70-52l-10-7a460 460 0 0 1-60-45l-11-9-7-7a6403 6403 0 0 0-33-36l-13-16-4-6-17-27-2-3-9-21-2-3-8-26-1-4c-4-14-5-29-5-44v-3c0-15 0-28 6-42l1-2c7-17 21-33 37-43l3-2c39-24 90-30 134-39a370 370 0 0 0 33-8c19-4 41-14 52-30 4-6 6-12 8-19l1-3c8-33-4-71-15-102l-3-7a592 592 0 0 0-40-98l-1-2a1474 1474 0 0 1-32-74l-1-2a1289 1289 0 0 1-17-41c-29-72-29-72-23-92 4-8 10-12 18-15 12-3 24-3 36-4h4l9-1Zm-30 36c-5 7-7 15-7 23 6 53 32 105 53 153a5191 5191 0 0 1 46 114 462 462 0 0 1 22 91c2 14-2 31-8 44l-1 3c-10 20-30 29-50 36-25 8-51 13-76 18-72 13-72 13-127 56-9 14-15 30-15 47v2c-1 18 0 36 5 53l1 4a211 211 0 0 0 19 45 257 257 0 0 0 46 64c7 9 16 18 26 25l8 7 11 10 8 6 15 11 17 13 6 4 8 7 23 16 15 11 10 8 2 1 9 6 8 7 10 7 8 7 15 12a221 221 0 0 1 35 29 404 404 0 0 1 39 35l2 2a3519 3519 0 0 1 37 39 298 298 0 0 1 15 19 385 385 0 0 1 58 86l10 20 2 4a2208 2208 0 0 1 8 17c25 54 41 106 45 166 1 28 1 28 16 52 18 14 42 19 65 25a2966 2966 0 0 1 59 15 792 792 0 0 1 126 45l36 14 20 7a1267 1267 0 0 1 68 24l2 1a931 931 0 0 0 125 35c17 3 36 2 51-8 15-11 21-26 24-45a135 135 0 0 0 0-21c-1-22-10-42-25-58a247 247 0 0 0-125-51 495 495 0 0 0-27-5l-48-10-3-1a466 466 0 0 1-51-14h-2c-47-15-89-44-113-88-18-33-23-72-28-108l-10-69-1-3a1188 1188 0 0 0-13-64l-1-9-1-3a525 525 0 0 0-4-26l-1-2a409 409 0 0 1-4-47v-3a1283 1283 0 0 1-2-16c-2-7-1-14-1-21l-1-14c-2-6-1-13-1-20a660 660 0 0 0 2-27v-12a265 265 0 0 1 32-121l13-25c14-22 25-46 30-72l1-2c7-35-3-68-21-97l-16-22-1-2a6429 6429 0 0 0-36-48l-1-2a320 320 0 0 1-24-35 421 421 0 0 1-24-43l-14-29-18-35-9-17a2510 2510 0 0 0-106-177c-23-30-50-55-84-71l-3-1c-12-6-24-9-37-12l-2-1-16-3h-2c-18-4-36-3-54-3H58c-47-2-47-2-88 17Z" transform="translate(481 191)"/><path d="m0 0 3 1c18 4 34 11 51 18l3 1c28 12 53 28 75 48l5 4a182 182 0 0 1 32 35 157 157 0 0 1 17 29 123 123 0 0 1 16 59c0 13-1 24-9 34a51 51 0 0 1-40 12c-39-5-79-31-107-58l-8-6a217 217 0 0 1-22-21 204 204 0 0 1-21-23l-11-12-5-6c-50-58-50-58-51-90 1-9 6-17 13-22 18-13 39-8 59-3Zm-38 25c-4 5-5 12-4 18a123 123 0 0 0 26 49 246 246 0 0 0 33 40l3 4a231 231 0 0 0 45 42l17 11 9 6c8 7 18 11 28 15l2 1c13 5 31 7 44 3 6-4 10-9 12-16 7-23-5-49-16-69a192 192 0 0 0-59-63C85 52 66 43 46 35l-2-1C2 17 2 17-38 25Z" transform="translate(1106 116)"/><path d="M0 0c6 3 6 3 7 7 1 8-1 13-6 20l-9 9-2 2a228 228 0 0 1-35 31c-25 19-25 19-37 17-3-2-5-3-6-6-1-5 0-9 3-14l23-25 2-2a164 164 0 0 1 20-18C-13-2-13-2 0 0Z" transform="translate(1804 65)"/><path d="m0 0 6 2a887 887 0 0 1 183 85 347 347 0 0 1 46 33 407 407 0 0 1 100 112l5 8a416 416 0 0 1 31 59l1 2a498 498 0 0 1 20 39l4 9c3 6 7 11 12 16l5 7c6 8 12 14 20 20l2 2a178 178 0 0 0 26 17l25 15 23 13 8 4a495 495 0 0 1 133 110 479 479 0 0 1 64 100c7 13 14 26 23 38l2 3 12 17 2 2c24 31 55 48 91 62l15 7 19 7a302 302 0 0 1 107 69 264 264 0 0 1 19 19l2 2c6 6 6 11 5 19v11l-11-11-12-13-3-2-7-7-6-7a245 245 0 0 0-53-39 276 276 0 0 0-53-24l-24-10c-28-10-55-21-78-40l-3-3a262 262 0 0 1-57-81l-12-23a397 397 0 0 0-206-203l-18-10-15-9c-27-14-52-32-68-58l-1-3c-8-12-14-24-20-37l-7-15-10-22a406 406 0 0 0-128-165l-3-3a465 465 0 0 0-83-52C93 51 51 34 8 20H5c-25-8-51-15-76-4l-10 7-3 2c-7 7-11 15-14 25l-1 3c-6 20 1 45 11 63a257 257 0 0 0 40 54 278 278 0 0 0 17 19 2240 2240 0 0 1 28 29l3 2 9 11a220 220 0 0 0 23 24 8117 8117 0 0 0 37 36l1 2 4 4v2h2c8 5 14 12 21 19l13 11 7 6a298 298 0 0 0 34 26 434 434 0 0 0 51 35l20 12 12 8a391 391 0 0 1 33 23c37 28 53 71 64 115a7086 7086 0 0 0 15 60l1 3c8 26 20 49 37 70l2 1c5 8 11 14 18 20l9 6a261 261 0 0 0 72 40c27 11 55 18 84 24a3844 3844 0 0 1 67 17c45 12 85 33 110 75l1 1c14 22 25 46 35 70l7 17a1049 1049 0 0 1 16 35l1 2a936 936 0 0 0 72 133l13 19 5 7a566 566 0 0 0 34 45l2 2a1227 1227 0 0 1 29 35 394 394 0 0 0 49 49l1 3v23l-14-11-11-9-13-14-7-7-11-13-7-9a792 792 0 0 1-29-36l-1-2-8-10c-6-6-11-13-15-20l-8-11-2-2-7-10a597 597 0 0 1-57-94 444 444 0 0 1-32-66 345 345 0 0 1-19-40l-9-20a245 245 0 0 0-14-29 206 206 0 0 0-40-54l-2-2c-10-10-22-17-34-23l-2-1a353 353 0 0 0-84-27l-3-1a4704 4704 0 0 0-58-15l-42-14-3-2c-18-7-35-14-51-25l-10-5-15-11-2-2a195 195 0 0 1-39-40c-26-32-37-76-46-115l-1-3a1283 1283 0 0 1-10-35l-3-9a133 133 0 0 0-27-50 140 140 0 0 0-33-30c-8-7-18-13-27-19l-21-14a813 813 0 0 0-46-31 271 271 0 0 1-26-21l-19-15-2-2a727 727 0 0 1-77-75 11690 11690 0 0 0-12-13l-19-18-9-8-2-2a3096 3096 0 0 1-56-61 385 385 0 0 1-22-28 132 132 0 0 1-24-56 82 82 0 0 1 18-64l2-3C-74-16-34-11 0 0Z" transform="translate(1037 21)"/><path d="M0 0h19c20 43 39 96 24 143-15 41-51 57-87 75a224 224 0 0 0-66 44c-23 23-37 55-38 87 0 24 10 42 27 59 26 24 67 34 101 33l11-2h8c24-3 47-12 68-23l13-7v29a219 219 0 0 1-134 27c-32-5-63-15-89-37l-2-1a92 92 0 0 1-31-72v-2c0-14 3-26 7-39l1-3 4-9 1-2c14-28 34-53 59-72l3-2c17-13 37-24 57-33a213 213 0 0 0 25-14c22-14 36-31 42-56 3-19 2-40-3-59l-1-3C15 42 9 25 2 8L0 0Z" transform="translate(1968)"/><path d="M0 0h13C11 12-3 21-12 28c-20 13-42 22-64 31a1905 1905 0 0 0-29 10c-22 9-22 9-37 27-8 21 6 48 15 66a530 530 0 0 0 84 131l6 8c9 10 19 20 29 28l8 8 15 12 13 11 15 13a538 538 0 0 1 30 25l2 2 7 5 15 14 7 6c11 10 22 20 31 32l11 11 12 14 8 9c5 5 10 9 14 15l10 11a437 437 0 0 1 21 24l12 13a210 210 0 0 1 11 12l6 6a129 129 0 0 0 16 15 270 270 0 0 0 50 36l2 2a405 405 0 0 0 125 49v27a404 404 0 0 1-99-37 215 215 0 0 1-35-18c-17-10-32-21-47-34l-2-1-12-11-3-2a527 527 0 0 1-68-71l-12-14-8-9a129 129 0 0 1-11-12l-10-10a471 471 0 0 0-25-27l-15-16-3-2-13-13-9-8-20-18-9-8a2073 2073 0 0 0-28-23l-2-2-9-8-9-9a321 321 0 0 1-68-74 673 673 0 0 1-65-106l-10-17-9-17-7-13a194 194 0 0 1-13-25c-11-23-11-23-10-32 2-4 5-8 9-10h7l3-1a11690 11690 0 0 0 9-1c28-3 28-3 55-9h2c17-4 33-8 49-15l8-3c12-4 25-10 35-19 6-6 12-6 21-6Z" transform="translate(1615)"/><path d="M0 0c39-2 39-2 56 7l13 5 2 1c17 5 37 11 54 4 7-4 6-8 8-17h35l13 27 2 3 1 3 1 2c2 5 3 10 2 15l-7 7c-22 7-49-2-70-8l-3-1a447 447 0 0 1-72-28l-3-1-5-2c-8-3-15-7-21-13L0 0Z" transform="translate(1220)"/><path d="M0 0c16-1 29-1 43 8l3 2 5 3 13 7c8 3 14 7 21 11l8 5 27 15a755 755 0 0 0 42 25l9 5a622 622 0 0 1 134 115 551 551 0 0 1 59 84 534 534 0 0 0 85 104l10 8a696 696 0 0 0 57 46 428 428 0 0 0 24 20l8 8 9 8a182 182 0 0 1 24 23 2291 2291 0 0 0 38 40l13 15a272 272 0 0 0 21 26 296 296 0 0 0 19 23 480 480 0 0 0 47 55 149 149 0 0 0 28 26c12 10 24 19 38 27l2 1a996 996 0 0 0 83 43l2 1c20 11 39 23 57 37l2 1a464 464 0 0 1 17 17l-1 10v12l-12-11-25-20-3-2a458 458 0 0 0-88-50c-33-16-62-34-90-57l-2-2-10-10-6-6-12-12a358 358 0 0 0-15-19 541 541 0 0 1-43-54l-17-20a525 525 0 0 1-20-24l-1-1-7-8-6-6a9776 9776 0 0 0-54-52l-12-10-10-9a549 549 0 0 0-49-38l-25-21-2-2a219 219 0 0 1-20-18 170 170 0 0 1-27-29c-9-10-16-21-23-32a10158 10158 0 0 0-19-29l-6-10a228 228 0 0 0-17-26 435 435 0 0 0-84-98l-7-7-6-5-2-2-18-14-2-1A936 936 0 0 0 48 29L17 14l-3-2C8 9 4 6 0 1V0Z" transform="translate(1101)"/><path d="M0 0h17a3191833846 3191833846 0 0 0 25 42 218 218 0 0 0 38 43c14 13 36 23 54 28l2 1 39 9h2l27 4 33 6 3 1c46 9 95 23 133 51l3 2c18 13 32 30 42 49l1 2a456 456 0 0 1 28 63l1 3a341 341 0 0 0 12 25l13 25 6 13a18734 18734 0 0 0 64 117c8 14 16 28 26 41l7 11 15 19 5 7a186 186 0 0 0 15 18 279 279 0 0 0 29 29l23 21c8 6 14 14 20 21l6 7c15 17 27 37 36 57l1 2a195 195 0 0 1 6 145l-2 6c-3 10-8 19-12 28l-1 2-14 25-2 2-3 7-2 2-8 12a221 221 0 0 0-21 30 237 237 0 0 0-39 151v10c0 5 0 10 2 16l1 12c2 22 6 44 11 65l1 3a1291 1291 0 0 0 15 58v3l6 24a266 266 0 0 0 52 124c5 7 11 12 18 17l5 4c47 34 110 45 165 56l19 4c39 9 39 9 80 15l5 1c16 2 35-3 48-10a78 78 0 0 0 20-22c7-10 12-20 17-31l5-10a388 388 0 0 0 19-39l10-22 12-26 1-2c4-7 7-14 12-20l3-7 10-14 4-6c5-7 10-13 17-19l8-9 12-10 2-2c18-13 37-21 58-25l3-1c20-3 41-1 61 3h2l24 5c30 6 30 6 59 9l9 1c19 4 44 3 62-8 5-5 8-12 8-18l-1-9v-2c-6-26-19-49-31-73a2641 2641 0 0 1-28-56l-20-41a379 379 0 0 0-24-45l-14-25-2-3a270 270 0 0 0-154-123 401 401 0 0 1-33-12l-3-1a1125 1125 0 0 0-58-19l-16-5c-17-6-33-12-49-21l-10-4c-6-2-11-5-17-9l-8-5-17-10-3-2-19-15-3-3a398 398 0 0 1-10-9c-10-9-17-19-24-29l-1-2c-14-20-23-41-30-64l-1-2-4-15a286 286 0 0 0-73-146c-7-8-15-14-22-20a337 337 0 0 1-23-20l-7-6a327 327 0 0 0-32-27 180 180 0 0 1-21-18l-12-12-16-15c-11-8-21-19-30-28a5739 5739 0 0 0-48-48c-11-12-11-12-24-22l-6-6-12-11-8-7a205 205 0 0 0-24-19l-27-21-26-20-2-2c-19-16-34-33-40-58l-1-4c-3-13-4-29-1-42l2-10c3-31 14-62 28-90h18c-1 8-4 14-7 21a253 253 0 0 0-21 96v3a109 109 0 0 0 35 69l20 18a441 441 0 0 1 31 25l17 14a1109 1109 0 0 0 36 33 299 299 0 0 0 21 19l3 3a5788 5788 0 0 1 56 56l25 23 11 11a177 177 0 0 0 23 21l11 10 7 6a473 473 0 0 0 43 35l11 9 2 1 5 5 2 2a425 425 0 0 1 23 22c16 16 30 34 40 54l1 3c14 26 22 54 29 82 11 38 25 76 52 105l2 2c10 11 20 20 32 28l2 1c25 18 54 32 82 43l2 1 12 4 7 3a1112 1112 0 0 0 92 31l12 4a352 352 0 0 1 96 51 239 239 0 0 1 47 49 289 289 0 0 1 24 39l12 21 6 12a105368 105368 0 0 1 19 36l1 2 15 30a6815 6815 0 0 0 66 132c6 14 9 30 4 44-4 8-10 14-18 18-15 6-35 9-51 4h-11a164 164 0 0 1-31-3l-62-11a326 326 0 0 0-47-8c-6 0-11 0-16 2h-8c-34 3-64 25-85 49a300 300 0 0 0-50 88 363 363 0 0 0-15 34 4864 4864 0 0 1-16 37c-6 14-13 26-21 38l-2 3c-9 12-21 23-37 26l-21 1h-3c-13 0-26 0-38-3l-12-3a1162 1162 0 0 1-78-16 1313 1313 0 0 1-47-11c-57-13-123-33-156-85a363 363 0 0 1-6-10c-24-35-32-81-41-122l-9-35c-24-97-24-97-23-135l-1-11c-2-11-2-22 1-32v-10c-1-42 17-83 38-118l1-2 18-28 23-36 1-2c14-25 23-54 27-82v-2a173 173 0 0 0-22-110c-5-10-11-18-17-27l-2-3-13-14-6-7c-6-7-11-13-18-18l-12-11-2-2a285 285 0 0 1-27-29c-10-10-19-21-27-32l-1-2a516 516 0 0 1-29-42 729 729 0 0 1-44-77 379 379 0 0 0-22-42 187 187 0 0 1-13-23l-8-16-10-19-11-22-9-18-8-18c-22-51-55-86-107-108-22-9-45-16-69-21l-3-1-36-6h-3l-22-4c-34-5-70-14-98-34l-2-1-11-9-2-1a176 176 0 0 1-43-52C0 11 0 11 0 0Z" transform="translate(380)"/><path d="M0 0a522 522 0 0 1 17-1c14 0 14 0 19 5l4 4c45 36 142 56 198 50 19-3 36-9 50-23l2-2c9-9 17-21 20-33h25c-10 29-30 59-58 72-15 7-30 9-47 9h-2c-9 0-17 0-26-2l-12-2a342 342 0 0 1-37-6l-34-7-10-3a247 247 0 0 1-63-23C29 29 13 15 0 1V0Z" transform="translate(469)"/><path d="M0 0a695 695 0 0 1 17 0c9-1 16 0 23 6 7 4 14 6 22 5l8-4 3-7h27c0 14-1 24-11 35-7 7-16 8-26 8-9-1-16-3-24-8l-2-1c-10-6-18-13-26-21l-3-3L0 0Z" transform="translate(146)"/><path d="M0 0h19c4 3 5 7 7 12l4 6 2 3a512 512 0 0 0 47 65 184 184 0 0 0 35 33 218 218 0 0 0 129 40c12 0 25 0 35-8 6-7 5-16 5-25l-2-18-1-2c-5-26-12-51-19-76l-1-3-2-8-1-2-4-10-1-7h18l3 9 6 18 9 28 1 3 12 40 4 10a1096 1096 0 0 1 9 32l1 2c2 10 4 23 0 33-4 6-10 9-17 11a122 122 0 0 1-18 1h-3a222 222 0 0 1-56-6 422 422 0 0 1-58-15A224 224 0 0 1 48 76 456 456 0 0 1 3 7L0 0Z" transform="translate(61)"/><path d="M0 0h14l13 25 1 3 8 17 13 26 11 25a283 283 0 0 0 46 74c7 8 13 14 21 20l3 2a206 206 0 0 0 59 31l35 12c66 20 130 45 172 102a239 239 0 0 0 5 7l1 2a311 311 0 0 1 28 42l2 2a463 463 0 0 1 25 46 129 129 0 0 1 13 27l6 13c10 23 19 47 23 73l1 3c2 14 2 31-3 45l-1 3a67 67 0 0 1-27 34c-11 8-22 12-34 16l-2 1c-18 6-37 9-55 12h-3l-6 1-4 1h-12l-5 1-14 1a232 232 0 0 0-27 4c-22 3-45 7-62 23l-1 1a95 95 0 0 0-27 44l-1 3a142 142 0 0 0-5 48 164 164 0 0 0 7 51 307 307 0 0 0 54 112l17 22 2 2a315 315 0 0 0 54 54l14 12 8 6a572 572 0 0 0 71 51 585 585 0 0 0 37 26l14 11a587 587 0 0 0 33 27 389 389 0 0 0 31 26l5 3a292 292 0 0 1 31 31l7 7 3 3a186 186 0 0 1 20 23 477 477 0 0 1 83 149l5 16 1 4a233 233 0 0 1 4 15c2 11 2 22 2 33v2c1 35-13 61-36 85l-2 2c-16 18-39 29-60 40l-2 1-17 9c-15 7-31 16-44 27l-2 1a98 98 0 0 0-37 61l1 10 1 4a86 86 0 0 0 45 56 145 145 0 0 0 39 16 127 127 0 0 0 63 2c15-1 30-5 45-9l3-1c15-4 30-11 45-16l2-1 27-11c20-9 41-15 63-19l4-1 9-1 4-1a242 242 0 0 1 62 1h8c11 0 21 2 32 3a535 535 0 0 0 36 7h3l40 9 3 1a1316 1316 0 0 1 128 37 1401 1401 0 0 0 52 18l8 3a326 326 0 0 1 53 25 395 395 0 0 1 59 35l2 2a1700 1700 0 0 0 46 32 304 304 0 0 0 54 33l2 1c11 5 22 7 34 4 6-2 11-5 14-10 4-10 5-20 5-30v-3l-2-23-3-32-2-16c-2-8-1-16-1-24 0-7 0-13-2-19v-8l1-2 1-5v-9c-1-21 0-45 11-65l1-2c5-9 12-17 23-21 32-7 68 13 96 27l2 1 26 14 15 8 20 12 2 1a10161 10161 0 0 1 68 36l11 6 5 2 10 5 2 1a16174 16174 0 0 1 17 8l2 1a1658 1658 0 0 0 31 17c13 6 26 14 39 22l7 4 14 9 2 1 24 18 2 2a353 353 0 0 1 92 105l5 9a606 606 0 0 1 19 32c4 7 5 13 4 22v13l-6-2-1-2-1-3-1-2-3-4-1-3-5-8-6-12-10-18-2-3a621 621 0 0 0-41-62l-2-2-5-5v-2l-2-1-5-4-2-3-3-4-11-11-7-5c-30-28-66-49-102-68l-2-1a716 716 0 0 0-66-33l-2-1-14-8-22-11-35-19-29-15a504 504 0 0 1-35-18l-14-7-23-9-2-1c-10-3-20-6-30-6h-3c-8 1-15 3-21 9-4 5-6 11-8 17l-1 2a159 159 0 0 0-7 38v19l1 23 1 11 3 27 1 2c1 14 4 27 6 40 5 24 8 50-5 72-4 6-9 9-15 13l-3 2c-16 6-32 5-48-1a245 245 0 0 1-58-38l-2-1a648 648 0 0 0-21-16 821 821 0 0 0-110-73l-38-17-7-2c-27-11-54-21-82-28l-16-5a1506 1506 0 0 0-73-19l-15-4h-3l-11-3-14-2-11-2a354 354 0 0 0-68-9c-7-2-15-1-22-1h-8c-12 0-12 0-23 2h-9c-29 2-57 13-84 23l-3 1-26 10c-19 8-40 15-61 20l-3 1c-17 4-33 6-50 5h-3a140 140 0 0 1-44-5 150 150 0 0 1-66-34c-13-9-21-21-28-35l-1-2c-7-15-9-36-5-51l3-6 1-2c11-23 29-41 50-56l2-1a263 263 0 0 1 39-23l14-7c18-9 35-19 50-32l3-2c24-20 36-46 40-77 1-16-2-34-6-50l-2-7c-12-43-34-83-58-120l-1-2c-13-19-27-37-42-54l-2-3-3-2-6-8c-5-7-12-12-18-17l-13-12-15-14-8-6a529 529 0 0 0-30-24c-17-15-36-28-55-41a2226 2226 0 0 1-143-111 210 210 0 0 1-27-32c-7-8-13-17-18-26l-5-6c-17-26-31-54-42-83l-1-2c-6-18-10-37-12-56l-1-5v-13l1-14 2-9c2-23 9-50 25-68l2-2c22-25 51-36 84-40l6-1 25-1c4 0 8 0 13-2h12c34-2 82-9 107-34 14-16 18-34 17-55a253 253 0 0 0-22-78 417 417 0 0 0-19-40l-2-2a608 608 0 0 0-31-54l-2-3-23-32-2-2-17-19-2-2c-7-8-15-15-24-21l-2-1a238 238 0 0 0-39-22l-27-12h-3a1182 1182 0 0 0-79-26l-3-1c-14-5-27-10-40-17l-2-1c-10-5-20-11-29-18l-3-2c-13-10-23-22-32-35l-2-2a151 151 0 0 1-17-31 949 949 0 0 0-22-44l-8-18a936 936 0 0 1-20-45C-1 9-1 9 0 0Z"/></svg>
